<svg width="166" height="50" viewBox="0 0 166 50" fill="none" xmlns="http://www.w3.org/2000/svg">
<path fill-rule="evenodd" clip-rule="evenodd" d="M20.5254 20.5691C20.5254 19.5613 21.6059 18.9224 22.4889 19.4081L30.6442 23.8935C31.5595 24.3969 31.5595 25.712 30.6442 26.2154L22.4889 30.7008C21.6059 31.1865 20.5254 30.5477 20.5254 29.5399V20.5691Z" fill="white"/>
<path d="M52.5 22.4212C52.5 21.7889 52.6193 21.1957 52.8578 20.6416C53.0963 20.0875 53.4189 19.6044 53.8258 19.1923C54.2397 18.7732 54.7202 18.4428 55.2673 18.2013C55.8145 17.9597 56.4002 17.839 57.0245 17.839H63.948V20.8974H57.0245C56.8141 20.8974 56.6176 20.9364 56.4353 21.0146C56.2529 21.0927 56.0915 21.2028 55.9512 21.3449C55.818 21.4799 55.7127 21.6398 55.6356 21.8245C55.5584 22.0092 55.5198 22.2081 55.5198 22.4212C55.5198 22.6344 55.5584 22.8368 55.6356 23.0286C55.7127 23.2134 55.818 23.3768 55.9512 23.5188C56.0915 23.6538 56.2529 23.7604 56.4353 23.8385C56.6176 23.9167 56.8141 23.9558 57.0245 23.9558H60.0443C60.6686 23.9558 61.2544 24.0765 61.8015 24.3181C62.3557 24.5525 62.8362 24.8793 63.243 25.2985C63.6569 25.7105 63.9796 26.1972 64.2111 26.7584C64.4496 27.3125 64.5688 27.9057 64.5688 28.538C64.5688 29.1703 64.4496 29.7635 64.2111 30.3176C63.9796 30.8718 63.6569 31.3584 63.243 31.7776C62.8362 32.1896 62.3557 32.5164 61.8015 32.758C61.2544 32.9995 60.6686 33.1203 60.0443 33.1203H53.3418V30.0619H60.0443C60.2548 30.0619 60.4512 30.0228 60.6336 29.9447C60.816 29.8665 60.9738 29.76 61.1071 29.625C61.2474 29.4829 61.3561 29.3195 61.4332 29.1348C61.5104 28.9501 61.549 28.7511 61.549 28.538C61.549 28.3249 61.5104 28.126 61.4332 27.9413C61.3561 27.7565 61.2474 27.5967 61.1071 27.4617C60.9738 27.3196 60.816 27.2095 60.6336 27.1314C60.4512 27.0532 60.2548 27.0141 60.0443 27.0141H57.0245C56.4002 27.0141 55.8145 26.8934 55.2673 26.6518C54.7202 26.4103 54.2397 26.0835 53.8258 25.6714C53.4189 25.2523 53.0963 24.7656 52.8578 24.2115C52.6193 23.6503 52.5 23.0535 52.5 22.4212Z" fill="white"/>
<path d="M71.7133 33.1203C71.0189 33.1203 70.3665 32.9889 69.7562 32.726C69.1459 32.456 68.6093 32.0902 68.1463 31.6284C67.6904 31.1595 67.3291 30.616 67.0626 29.998C66.803 29.3799 66.6732 28.7192 66.6732 28.0159V24.6271H65.2738V21.7286H66.6732V17.1676H69.5352V21.7286H73.8914V24.6271H69.5352V28.0159C69.5352 28.3213 69.5914 28.6091 69.7036 28.879C69.8158 29.1419 69.9702 29.3728 70.1666 29.5717C70.363 29.7706 70.5945 29.9305 70.861 30.0512C71.1276 30.1649 71.4117 30.2217 71.7133 30.2217H73.8914V33.1203H71.7133Z" fill="white"/>
<path d="M78.3843 33.1203H75.5118V21.7072H76.2062L77.1532 23.0606C77.6162 22.6344 78.1423 22.3076 78.7316 22.0802C79.3208 21.8458 79.9311 21.7286 80.5624 21.7286H83.0982V24.6271H80.5624C80.2608 24.6271 79.9767 24.6839 79.7101 24.7976C79.4435 24.9113 79.2121 25.0676 79.0156 25.2665C78.8192 25.4654 78.6649 25.6999 78.5527 25.9698C78.4404 26.2398 78.3843 26.5275 78.3843 26.833V33.1203Z" fill="white"/>
<path d="M88.7065 30.3283C88.8187 30.3638 88.931 30.3887 89.0432 30.4029C89.1554 30.41 89.2677 30.4136 89.3799 30.4136C89.6605 30.4136 89.9306 30.3745 90.1901 30.2963C90.4496 30.2182 90.6917 30.1081 90.9161 29.966C91.1476 29.8168 91.351 29.6392 91.5264 29.4332C91.7088 29.22 91.8561 28.9856 91.9683 28.7298L94.0727 30.8718C93.8062 31.2554 93.4975 31.6 93.1468 31.9055C92.8031 32.2109 92.4278 32.4702 92.0209 32.6834C91.6211 32.8965 91.1967 33.0563 90.7478 33.1629C90.3058 33.2766 89.8499 33.3334 89.3799 33.3334C88.5872 33.3334 87.8402 33.1842 87.1387 32.8858C86.4442 32.5875 85.834 32.1719 85.3078 31.639C84.7888 31.1062 84.3784 30.4739 84.0768 29.7422C83.7751 29.0034 83.6243 28.1935 83.6243 27.3125C83.6243 26.4103 83.7751 25.5862 84.0768 24.8402C84.3784 24.0943 84.7888 23.4585 85.3078 22.9327C85.834 22.407 86.4442 21.9985 87.1387 21.7072C87.8402 21.416 88.5872 21.2703 89.3799 21.2703C89.8499 21.2703 90.3093 21.3272 90.7583 21.4408C91.2072 21.5545 91.6316 21.7179 92.0315 21.931C92.4383 22.1442 92.8171 22.407 93.1678 22.7196C93.5186 23.0251 93.8272 23.3696 94.0938 23.7533L88.7065 30.3283ZM90.1796 24.3287C90.0463 24.279 89.913 24.247 89.7797 24.2328C89.6535 24.2186 89.5202 24.2115 89.3799 24.2115C88.9871 24.2115 88.6153 24.2861 88.2646 24.4353C87.9208 24.5774 87.6192 24.7834 87.3597 25.0534C87.1071 25.3233 86.9072 25.6501 86.7599 26.0338C86.6126 26.4103 86.5389 26.8365 86.5389 27.3125C86.5389 27.4191 86.5424 27.5399 86.5495 27.6748C86.5635 27.8098 86.581 27.9484 86.6021 28.0904C86.6301 28.2254 86.6617 28.3569 86.6968 28.4847C86.7318 28.6126 86.7774 28.7263 86.8336 28.8257L90.1796 24.3287Z" fill="white"/>
<path d="M106.373 33.1203H105.679L104.563 31.5538C104.29 31.8024 103.999 32.0369 103.69 32.2571C103.388 32.4702 103.069 32.6585 102.732 32.8219C102.396 32.9782 102.048 33.1025 101.691 33.1949C101.34 33.2872 100.982 33.3334 100.617 33.3334C99.8248 33.3334 99.0777 33.1984 98.3763 32.9285C97.6818 32.6585 97.0715 32.2678 96.5454 31.7563C96.0263 31.2376 95.616 30.6054 95.3144 29.8594C95.0127 29.1135 94.8619 28.2645 94.8619 27.3125C94.8619 26.4245 95.0127 25.6111 95.3144 24.8722C95.616 24.1263 96.0263 23.4869 96.5454 22.954C97.0715 22.4212 97.6818 22.0092 98.3763 21.7179C99.0777 21.4195 99.8248 21.2703 100.617 21.2703C100.982 21.2703 101.344 21.3165 101.701 21.4089C102.059 21.5012 102.406 21.6291 102.743 21.7925C103.08 21.9559 103.399 22.1477 103.7 22.3679C104.009 22.5882 104.297 22.8262 104.563 23.0819L105.679 21.7286H106.373V33.1203ZM103.479 27.3125C103.479 26.9147 103.402 26.5311 103.248 26.1616C103.101 25.7851 102.897 25.4548 102.638 25.1706C102.378 24.8793 102.073 24.6484 101.722 24.4779C101.379 24.3003 101.01 24.2115 100.617 24.2115C100.225 24.2115 99.8529 24.279 99.5021 24.414C99.1584 24.549 98.8568 24.7479 98.5972 25.0107C98.3447 25.2736 98.1448 25.6004 97.9975 25.9911C97.8502 26.3748 97.7765 26.8152 97.7765 27.3125C97.7765 27.8098 97.8502 28.2538 97.9975 28.6446C98.1448 29.0282 98.3447 29.3515 98.5972 29.6143C98.8568 29.8772 99.1584 30.0761 99.5021 30.2111C99.8529 30.3461 100.225 30.4136 100.617 30.4136C101.01 30.4136 101.379 30.3283 101.722 30.1578C102.073 29.9802 102.378 29.7493 102.638 29.4651C102.897 29.1739 103.101 28.8435 103.248 28.4741C103.402 28.0976 103.479 27.7104 103.479 27.3125Z" fill="white"/>
<path d="M122.903 33.1203H120.041V25.8739C120.041 25.675 120.003 25.4867 119.925 25.3091C119.855 25.1315 119.754 24.9752 119.62 24.8402C119.487 24.7053 119.333 24.6022 119.157 24.5312C118.982 24.4531 118.796 24.414 118.6 24.414C118.403 24.414 118.217 24.4531 118.042 24.5312C117.874 24.6022 117.723 24.7053 117.59 24.8402C117.463 24.9752 117.362 25.1315 117.284 25.3091C117.214 25.4867 117.179 25.675 117.179 25.8739V33.1203H114.307V25.8739C114.307 25.675 114.268 25.4867 114.191 25.3091C114.121 25.1315 114.019 24.9752 113.886 24.8402C113.753 24.7053 113.598 24.6022 113.423 24.5312C113.247 24.4531 113.062 24.414 112.865 24.414C112.669 24.414 112.483 24.4531 112.308 24.5312C112.139 24.6022 111.988 24.7053 111.855 24.8402C111.729 24.9752 111.627 25.1315 111.55 25.3091C111.48 25.4867 111.445 25.675 111.445 25.8739V33.1203H108.572V21.7072H109.267L110.045 22.5811C110.445 22.2401 110.884 21.9772 111.361 21.7925C111.845 21.6007 112.346 21.5048 112.865 21.5048C113.391 21.5048 113.903 21.6042 114.401 21.8032C114.906 22.0021 115.348 22.3466 115.727 22.8368C115.903 22.5953 116.102 22.3893 116.327 22.2188C116.551 22.0482 116.786 21.9097 117.032 21.8032C117.284 21.6966 117.544 21.622 117.811 21.5794C118.077 21.5296 118.34 21.5048 118.6 21.5048C119.196 21.5048 119.754 21.6184 120.273 21.8458C120.799 22.0731 121.255 22.3857 121.641 22.7835C122.033 23.1743 122.342 23.6361 122.567 24.1689C122.791 24.7017 122.903 25.27 122.903 25.8739V33.1203Z" fill="white"/>
<path d="M136.845 17.839L131.889 33.1203H128.869L123.934 17.839H127.365L130.374 28.0372L133.394 17.839H136.845Z" fill="white"/>
<path d="M141.38 18.6062C141.38 18.8762 141.327 19.1284 141.222 19.3628C141.124 19.5973 140.987 19.8033 140.812 19.9809C140.636 20.1514 140.43 20.2899 140.191 20.3965C139.96 20.496 139.711 20.5457 139.444 20.5457C139.177 20.5457 138.925 20.496 138.686 20.3965C138.455 20.2899 138.251 20.1514 138.076 19.9809C137.908 19.8033 137.771 19.5973 137.666 19.3628C137.568 19.1284 137.518 18.8762 137.518 18.6062C137.518 18.3434 137.568 18.0947 137.666 17.8603C137.771 17.6187 137.908 17.4127 138.076 17.2422C138.251 17.0646 138.455 16.9261 138.686 16.8266C138.925 16.72 139.177 16.6667 139.444 16.6667C139.711 16.6667 139.96 16.72 140.191 16.8266C140.43 16.9261 140.636 17.0646 140.812 17.2422C140.987 17.4127 141.124 17.6187 141.222 17.8603C141.327 18.0947 141.38 18.3434 141.38 18.6062ZM140.885 33.1203H137.992V21.7072H140.885V33.1203Z" fill="white"/>
<path d="M154.364 27.3125C154.364 28.2077 154.213 29.0247 153.912 29.7635C153.61 30.5024 153.2 31.1382 152.681 31.671C152.162 32.1967 151.551 32.6052 150.85 32.8965C150.155 33.1878 149.408 33.3334 148.609 33.3334C147.816 33.3334 147.069 33.1842 146.367 32.8858C145.673 32.5875 145.063 32.1719 144.537 31.639C144.018 31.1062 143.607 30.4739 143.306 29.7422C143.004 29.0034 142.853 28.1935 142.853 27.3125V17.1676H145.736V22.4958C145.89 22.2969 146.076 22.1193 146.294 21.963C146.518 21.8067 146.757 21.6788 147.009 21.5794C147.269 21.4799 147.535 21.4053 147.809 21.3556C148.083 21.2987 148.349 21.2703 148.609 21.2703C149.408 21.2703 150.155 21.4231 150.85 21.7286C151.551 22.0269 152.162 22.4461 152.681 22.986C153.2 23.5259 153.61 24.1653 153.912 24.9042C154.213 25.6359 154.364 26.4387 154.364 27.3125ZM151.471 27.3125C151.471 26.8721 151.394 26.4636 151.239 26.087C151.092 25.7034 150.888 25.3731 150.629 25.096C150.369 24.8189 150.064 24.6022 149.714 24.4459C149.37 24.2897 149.002 24.2115 148.609 24.2115C148.216 24.2115 147.844 24.3003 147.493 24.4779C147.15 24.6484 146.848 24.8793 146.588 25.1706C146.329 25.4548 146.125 25.7851 145.978 26.1616C145.831 26.5311 145.757 26.9147 145.757 27.3125C145.757 27.753 145.831 28.1615 145.978 28.538C146.125 28.9145 146.329 29.2413 146.588 29.5184C146.848 29.7955 147.15 30.0157 147.493 30.1791C147.844 30.3354 148.216 30.4136 148.609 30.4136C149.002 30.4136 149.37 30.3354 149.714 30.1791C150.064 30.0157 150.369 29.7955 150.629 29.5184C150.888 29.2413 151.092 28.9145 151.239 28.538C151.394 28.1615 151.471 27.753 151.471 27.3125Z" fill="white"/>
<path d="M160.446 30.3283C160.558 30.3638 160.671 30.3887 160.783 30.4029C160.895 30.41 161.007 30.4136 161.119 30.4136C161.4 30.4136 161.67 30.3745 161.93 30.2963C162.189 30.2182 162.431 30.1081 162.656 29.966C162.887 29.8168 163.091 29.6392 163.266 29.4332C163.448 29.22 163.596 28.9856 163.708 28.7298L165.812 30.8718C165.546 31.2554 165.237 31.6 164.886 31.9055C164.543 32.2109 164.167 32.4702 163.76 32.6834C163.361 32.8965 162.936 33.0563 162.487 33.1629C162.045 33.2766 161.589 33.3334 161.119 33.3334C160.327 33.3334 159.58 33.1842 158.878 32.8858C158.184 32.5875 157.574 32.1719 157.047 31.639C156.528 31.1062 156.118 30.4739 155.816 29.7422C155.515 29.0034 155.364 28.1935 155.364 27.3125C155.364 26.4103 155.515 25.5862 155.816 24.8402C156.118 24.0943 156.528 23.4585 157.047 22.9327C157.574 22.407 158.184 21.9985 158.878 21.7072C159.58 21.416 160.327 21.2703 161.119 21.2703C161.589 21.2703 162.049 21.3272 162.498 21.4408C162.947 21.5545 163.371 21.7179 163.771 21.931C164.178 22.1442 164.557 22.407 164.907 22.7196C165.258 23.0251 165.567 23.3696 165.833 23.7533L160.446 30.3283ZM161.919 24.3287C161.786 24.279 161.653 24.247 161.519 24.2328C161.393 24.2186 161.26 24.2115 161.119 24.2115C160.727 24.2115 160.355 24.2861 160.004 24.4353C159.66 24.5774 159.359 24.7834 159.099 25.0534C158.847 25.3233 158.647 25.6501 158.499 26.0338C158.352 26.4103 158.278 26.8365 158.278 27.3125C158.278 27.4191 158.282 27.5399 158.289 27.6748C158.303 27.8098 158.321 27.9484 158.342 28.0904C158.37 28.2254 158.401 28.3569 158.436 28.4847C158.471 28.6126 158.517 28.7263 158.573 28.8257L161.919 24.3287Z" fill="white"/>
</svg>
